<?xml version="1.0" encoding="UTF-8" standalone="no"?>
<!DOCTYPE svg PUBLIC "-//W3C//DTD SVG 1.1//EN" "http://www.w3.org/Graphics/SVG/1.1/DTD/svg11.dtd">
<svg width="100%" height="100%" viewBox="0 0 24 24" version="1.1" xmlns="http://www.w3.org/2000/svg" xmlns:xlink="http://www.w3.org/1999/xlink" xml:space="preserve" xmlns:serif="http://www.serif.com/" style="fill-rule:evenodd;clip-rule:evenodd;stroke-linejoin:round;stroke-miterlimit:2;">
    <g>
        <rect x="0" y="0" width="24" height="24" style="fill:none;fill-rule:nonzero;"/>
        <rect x="0" y="0" width="24" height="24" style="fill:none;fill-rule:nonzero;"/>
    </g>
    <g>
        <path d="M12,17.27L16.15,19.78C16.91,20.24 17.84,19.56 17.64,18.7L16.54,13.98L20.21,10.8C20.88,10.22 20.52,9.12 19.64,9.05L14.81,8.64L12.92,4.18C12.58,3.37 11.42,3.37 11.08,4.18L9.19,8.63L4.36,9.04C3.48,9.11 3.12,10.21 3.79,10.79L7.46,13.97L6.36,18.69C6.16,19.55 7.09,20.23 7.85,19.77L12,17.27Z" style="fill:rgb(255,181,0);fill-rule:nonzero;"/>
    </g>
</svg>
